<svg xmlns="http://www.w3.org/2000/svg" width="32" height="32" fill="none" viewBox="0 0 32 32"><rect width="32" height="32" fill="#EEE" rx="8"/><path fill="#111" d="M5.8 20.9c-.6-1-.9-2-.8-3.1v-4.6c0-1 .2-2.2.8-3.1C6.4 9.4 7.3 9 8.6 9c1.3 0 2.2.3 2.6 1 .6.7.9 1.7.8 2.7v1H9.6v-2.1a1 1 0 0 0-.4-.5.9.9 0 0 0-.6-.2H8l-.4.4c-.2.4-.2.9-.2 1.3v5.8c0 .4 0 .9.2 1.3l.4.4H9l.4-.4.2-1.3v-1.2H12v1c0 1-.2 2-.7 2.8-.6.7-1.4 1-2.7 1-1.3 0-2.2-.4-2.8-1.1Z"/><path fill="#111" fill-rule="evenodd" d="M15.5 9h3L21 22h-2.5l-.4-2.9h-2l-.6 2.9H13l2.5-13Zm2.3 8.5-.8-5.2-.8 5.2h1.6Z" clip-rule="evenodd"/><path fill="#111" d="M21 11h1.8v11h2.4V11H27V9h-6v2Z"/></svg>