<svg viewBox="0 0 58 64" fill="none" xmlns="http://www.w3.org/2000/svg"><path fill-rule="evenodd" clip-rule="evenodd" d="M54.66 13.53h-7.25a8.1 8.1 0 0 0-4.33-12.34 8.02 8.02 0 0 0-6.14.64c-3.76 2.04-6.42 6.36-7.92 9.39-1.5-3.03-4.16-7.35-7.91-9.39a8.08 8.08 0 0 0-10.47 11.7h-7.25a3.27 3.27 0 0 0-3.26 3.26v9.78c0 1.8 1.46 3.26 3.26 3.26h.87v27.19a6.29 6.29 0 0 0 6.28 6.29h36.97a6.29 6.29 0 0 0 6.28-6.28v-27.21h.87c1.8 0 3.26-1.45 3.26-3.25v-9.78c0-1.8-1.46-3.26-3.26-3.26Zm-3.37 30.54v-14.24h-21.02v14.24h21.02Zm-21.02 2.5h21.02v10.46c0 2.08-1.7 3.78-3.78 3.78h-17.24v-14.24Zm-2.5-2.5v-14.24h-21.01v14.24h21.01Zm-21.01 2.5h21.01v14.24h-17.23a3.79 3.79 0 0 1-3.78-3.78v-10.46Zm20.58-33.04h-13.21a5.58 5.58 0 0 1 5.79-9.5c3.66 1.99 6.24 6.87 7.42 9.5Zm10.8-9.5c-3.67 1.99-6.26 6.87-7.44 9.5h13.22a5.54 5.54 0 0 0 1.76-7.25 5.53 5.53 0 0 0-7.55-2.25Zm-9.16 23.3h-25.59a.76.76 0 0 1-.76-.76v-9.78c0-.4.35-.76.76-.76h51.27c.4 0 .76.35.76.76v9.78c0 .42-.34.76-.76.76h-2.08a1.32 1.32 0 0 0-.08 0h-23.44a1.3 1.3 0 0 0-.04 0h-.04Z" fill="#fff"/></svg>